<?xml version="1.0" encoding="utf-8"?>
<!-- Generator: Adobe Illustrator 22.0.1, SVG Export Plug-In . SVG Version: 6.00 Build 0)  -->
<svg version="1.1" id="Layer_1" xmlns="http://www.w3.org/2000/svg" xmlns:xlink="http://www.w3.org/1999/xlink" x="0px" y="0px"
	 viewBox="0 0 219.1 49.4" style="enable-background:new 0 0 219.1 49.4;" xml:space="preserve">
<style type="text/css">
	.st0{fill:#91AAC3;}
	.st1{fill:#245688;}
</style>
<g>
	<polygon class="st0" points="211.8,38.8 211.8,0.9 198,0.9 190.7,10.6 200.4,10.6 200.4,38.8 193.1,38.8 193.1,48.5 219.1,48.5 
		219.1,38.8 	"/>
	<path class="st1" d="M0,0.9h17.2c5.3,0,14.9,0,21,8.9c3.3,4.5,4.4,9.6,4.4,14.8c0,13-6.4,23.9-24.5,23.9H0V0.9z M12.2,37.8h6.7
		c9.1,0,11.7-6.3,11.7-13.1c0-2.7-0.6-6.1-2.3-8.8c-1.4-2.1-3.9-4.4-9.3-4.4h-6.7V37.8z"/>
	<path class="st1" d="M72,0c14.7,0,25.2,11.5,25.2,24.7C97.2,38,86.8,49.4,72,49.4c-15,0-25-11.9-25-24.1c0-3.2,0.4-6.7,1.9-10.2
		C51.3,8.9,58.7,0,72,0z M72.2,38.7c8.6,0,12.8-7.9,12.8-14c0-6.2-4.2-14.1-12.9-14.1c-8.4,0-13,7.2-13,13.9
		C59.1,31.9,64.1,38.7,72.2,38.7z"/>
	<path class="st1" d="M102.2,0.9h12.2v21.4h0.1L130,0.9h12.7l-17.9,23.7l18.9,23.9h-14.2l-15.1-20.6h-0.1v20.6h-12.2V0.9z"/>
	<path class="st1" d="M147.9,0.9h12.2v21.4h0.1l15.6-21.4h12.7l-17.9,23.7l18.9,23.9h-14.2l-15.1-20.6h-0.1v20.6h-12.2V0.9z"/>
</g>
</svg>
